<svg xmlns="http://www.w3.org/2000/svg" viewBox="0 0 95.34 49.1"><defs><style>.cls-1{fill:#6b4ee6;}</style></defs><title>favicon-color-dark</title><g id="Layer_2" data-name="Layer 2"><g id="Layer_1-2" data-name="Layer 1"><path class="cls-1" d="M93.57,20.44c-1,.42-2,.95-3,1.35-2.62,1.06-5.26,2.07-8.33,1.92a41,41,0,0,0,.38-4.18,21,21,0,0,0-.45-4,5.67,5.67,0,0,0-5.69-4.59c-6.86-.1-12,7.53-9.21,14,.68,1.61,2.14,2.89,3.12,4.42.34.53.62,1.54.35,2a16.71,16.71,0,0,1-7.23,6.37c-2.22,1-4.73,1.76-6.77.05s-1.57-4-1.18-6.28a69.55,69.55,0,0,1,7.9-21.9c1.36-2.46.77-3.59-2.07-3.4a63.52,63.52,0,0,0-7.21,1.13,7.54,7.54,0,0,0-6.3,5.35c-.9,2.7-2,5.31-3,8-1,2.93-1.92,2.49-5.71,3,1.63-2.27,1.4-5.39.77-7.55-1.22-4.1-3.75-6.4-8.4-4.69-8.19,3-10,12-3.56,17.87.44.39.88,1.46.67,1.74-2.72,3.86-5.94,7.15-11,7.56-3.23.26-4.81-1.23-4.56-4.44.74-9.3,8.39-21.42,16.2-24.43,13.87-4.73,11.81,8.78,13.57,4.92C48.48,2.34,32.67-2.75,22.69,1.45,14.2,5.35,8.56,12.07,4.53,20.24,1.64,26.08-.25,32.23,0,38.85A10.94,10.94,0,0,0,10.4,49c10,.14,19.66-9.82,23.67-15.52a3.71,3.71,0,0,1,1.73-1.53c2.09-.48,4.24-.7,6.56-1.05,0,3-.16,6,0,8.93.3,4.54,2.75,7.8,6.57,8.86a15.29,15.29,0,0,0,9-.56c7.86-2.65,13.62-8,18.27-14.62a3.64,3.64,0,0,1,2.92-1.73c4.95-.54,9.63-2,13.34-5.45a12,12,0,0,0,2.71-4.57C95.64,20.63,94.86,19.88,93.57,20.44ZM33.33,23.75c-.83.56-1.65-.16-1.72-2.29,0-1,2.24-2,2.86-1A3.79,3.79,0,0,1,33.33,23.75ZM76,25.52c-.87.39-2.18-1.3-1.8-2.68.68-2.49,2.77-1.62,2.86-.59C77.19,24,77,25.07,76,25.52Z"/></g></g></svg>